<svg xmlns="http://www.w3.org/2000/svg">
<symbol id="icon-contact-book" stroke="currentColor" fill="currentColor">
<path d="M33.9449 0H15.0866C13.254 0.00214294 11.4618 0.478927 9.92922 1.37205C8.39663 2.26517 7.19004 3.53591 6.457 5.02889H3.77158C3.27142 5.02889 2.79175 5.2055 2.43809 5.51987C2.08443 5.83423 1.88574 6.2606 1.88574 6.70519C1.88574 7.14977 2.08443 7.57614 2.43809 7.89051C2.79175 8.20487 3.27142 8.38148 3.77158 8.38148H5.65741V11.7341H3.77158C3.27142 11.7341 2.79175 11.9107 2.43809 12.2251C2.08443 12.5394 1.88574 12.9658 1.88574 13.4104C1.88574 13.855 2.08443 14.2813 2.43809 14.5957C2.79175 14.9101 3.27142 15.0867 3.77158 15.0867H5.65741V18.4393H3.77158C3.27142 18.4393 2.79175 18.6159 2.43809 18.9302C2.08443 19.2446 1.88574 19.671 1.88574 20.1156C1.88574 20.5601 2.08443 20.9865 2.43809 21.3009C2.79175 21.6152 3.27142 21.7919 3.77158 21.7919H5.65741V25.1444H3.77158C3.27142 25.1444 2.79175 25.3211 2.43809 25.6354C2.08443 25.9498 1.88574 26.3762 1.88574 26.8207C1.88574 27.2653 2.08443 27.6917 2.43809 28.0061C2.79175 28.3204 3.27142 28.497 3.77158 28.497H5.65741V31.8496H3.77158C3.27142 31.8496 2.79175 32.0262 2.43809 32.3406C2.08443 32.655 1.88574 33.0813 1.88574 33.5259C1.88574 33.9705 2.08443 34.3969 2.43809 34.7113C2.79175 35.0256 3.27142 35.2022 3.77158 35.2022H6.457C7.19004 36.6952 8.39663 37.9659 9.92922 38.8591C11.4618 39.7522 13.254 40.229 15.0866 40.2311H33.9449C36.4448 40.2285 38.8414 39.3446 40.609 37.7733C42.3767 36.202 43.3711 34.0717 43.3741 31.8496V8.38148C43.3711 6.15939 42.3767 4.02908 40.609 2.45782C38.8414 0.886563 36.4448 0.00266172 33.9449 0V0ZM39.6024 31.8496C39.6024 33.1834 39.0064 34.4625 37.9454 35.4056C36.8844 36.3487 35.4454 36.8785 33.9449 36.8785H15.0866C13.5861 36.8785 12.1471 36.3487 11.0861 35.4056C10.0251 34.4625 9.42908 33.1834 9.42908 31.8496V8.38148C9.42908 7.04774 10.0251 5.76862 11.0861 4.82552C12.1471 3.88242 13.5861 3.35259 15.0866 3.35259H33.9449C35.4454 3.35259 36.8844 3.88242 37.9454 4.82552C39.0064 5.76862 39.6024 7.04774 39.6024 8.38148V31.8496ZM24.5157 20.1156C26.0162 20.1156 27.4552 19.5857 28.5162 18.6426C29.5772 17.6995 30.1732 16.4204 30.1732 15.0867C30.1732 13.7529 29.5772 12.4738 28.5162 11.5307C27.4552 10.5876 26.0162 10.0578 24.5157 10.0578C23.0153 10.0578 21.5763 10.5876 20.5153 11.5307C19.4543 12.4738 18.8582 13.7529 18.8582 15.0867C18.8582 16.4204 19.4543 17.6995 20.5153 18.6426C21.5763 19.5857 23.0153 20.1156 24.5157 20.1156ZM33.9449 30.1733C33.9449 30.6179 33.7462 31.0443 33.3926 31.3587C33.0389 31.673 32.5592 31.8496 32.0591 31.8496C31.5589 31.8496 31.0793 31.673 30.7256 31.3587C30.3719 31.0443 30.1732 30.6179 30.1732 30.1733C30.1732 28.8396 29.5772 27.5605 28.5162 26.6174C27.4552 25.6743 26.0162 25.1444 24.5157 25.1444C23.0153 25.1444 21.5763 25.6743 20.5153 26.6174C19.4543 27.5605 18.8582 28.8396 18.8582 30.1733C18.8582 30.6179 18.6596 31.0443 18.3059 31.3587C17.9522 31.673 17.4726 31.8496 16.9724 31.8496C16.4723 31.8496 15.9926 31.673 15.6389 31.3587C15.2853 31.0443 15.0866 30.6179 15.0866 30.1733C15.4845 19.0964 33.5508 19.0997 33.9449 30.1733Z" fill="currentColor"/>
</symbol>
</svg>
