<svg width="41" height="33" viewBox="0 0 41 33" fill="none" xmlns="http://www.w3.org/2000/svg">
<g id="fi-rr-delete" clip-path="url(#clip0_1_1865)">
<path id="Vector" d="M32.4581 2.75019H17.0079C15.7065 2.74695 14.4217 2.98473 13.2527 3.44514C12.0838 3.90555 11.0621 4.57624 10.2668 5.40531L0.358471 15.6559C0.12519 15.8973 -0.00146484 16.1944 -0.00146484 16.5002C-0.00146484 16.806 0.12519 17.1031 0.358471 17.3444L10.2668 27.5951C11.0621 28.4241 12.0838 29.0948 13.2527 29.5552C14.4217 30.0156 15.7065 30.2534 17.0079 30.2502H32.4581C34.7226 30.248 36.8936 29.523 38.4949 28.2341C40.0962 26.9453 40.997 25.1979 40.9997 23.3752V9.62519C40.997 7.80249 40.0962 6.05508 38.4949 4.76624C36.8936 3.4774 34.7226 2.75237 32.4581 2.75019ZM37.5831 23.3752C37.5831 24.4692 37.0431 25.5184 36.082 26.292C35.1209 27.0656 33.8173 27.5002 32.4581 27.5002H17.0079C16.227 27.5024 15.456 27.3599 14.7545 27.0838C14.053 26.8077 13.4399 26.4053 12.9626 25.9079L3.87251 16.5002L12.9626 7.09243C13.4399 6.59502 14.053 6.19269 14.7545 5.91658C15.456 5.64047 16.227 5.498 17.0079 5.50019H32.4581C33.8173 5.50019 35.1209 5.93478 36.082 6.70837C37.0431 7.48196 37.5831 8.53117 37.5831 9.62519V23.3752ZM29.395 14.0348L26.332 16.5002L29.395 18.9656C29.5582 19.0924 29.6883 19.2441 29.7779 19.4119C29.8674 19.5796 29.9145 19.7601 29.9165 19.9426C29.9185 20.1252 29.8752 20.3063 29.7893 20.4752C29.7034 20.6442 29.5766 20.7978 29.4162 20.9269C29.2558 21.056 29.065 21.1581 28.8551 21.2272C28.6452 21.2963 28.4202 21.3311 28.1934 21.3295C27.9665 21.3279 27.7424 21.29 27.5339 21.218C27.3255 21.1459 27.137 21.0411 26.9794 20.9098L23.9164 18.4444L20.8533 20.9098C20.5312 21.1603 20.0996 21.2989 19.6517 21.2957C19.2038 21.2926 18.7753 21.148 18.4586 20.8931C18.1418 20.6381 17.9622 20.2933 17.9583 19.9327C17.9544 19.5722 18.1266 19.2249 18.4378 18.9656L21.5008 16.5002L18.4378 14.0348C18.1266 13.7755 17.9544 13.4282 17.9583 13.0676C17.9622 12.7071 18.1418 12.3622 18.4586 12.1073C18.7753 11.8524 19.2038 11.7078 19.6517 11.7046C20.0996 11.7015 20.5312 11.8401 20.8533 12.0906L23.9164 14.5559L26.9794 12.0906C27.3016 11.8401 27.7332 11.7015 28.1811 11.7046C28.629 11.7078 29.0575 11.8524 29.3742 12.1073C29.6909 12.3622 29.8706 12.7071 29.8745 13.0676C29.8784 13.4282 29.7062 13.7755 29.395 14.0348Z" fill="white"/>
</g>
<defs>
<clipPath id="clip0_1_1865">
<rect width="41" height="33" fill="white"/>
</clipPath>
</defs>
</svg>
