<svg width="46" height="46" viewBox="0 0 46 46" fill="none" xmlns="http://www.w3.org/2000/svg">
<g id="fi-rr-gift" clip-path="url(#clip0_1_1857)">
<path id="Vector" d="M37.7167 13.2008H34.4391C35.5053 12.2609 36.3517 11.0979 36.9181 9.79426C37.4846 8.49062 37.7572 7.0783 37.7167 5.6575C37.7167 5.15735 37.518 4.67768 37.1643 4.32401C36.8107 3.97035 36.331 3.77167 35.8308 3.77167C35.3307 3.77167 34.851 3.97035 34.4973 4.32401C34.1437 4.67768 33.945 5.15735 33.945 5.6575C33.945 10.6022 29.4737 12.3145 26.0735 12.901C27.3285 10.6758 28.084 8.20407 28.2875 5.6575C28.2875 4.15704 27.6914 2.71803 26.6305 1.65704C25.5695 0.596056 24.1305 0 22.63 0C21.1295 0 19.6905 0.596056 18.6295 1.65704C17.5686 2.71803 16.9725 4.15704 16.9725 5.6575C17.176 8.20407 17.9315 10.6758 19.1865 12.901C15.7863 12.3145 11.315 10.6022 11.315 5.6575C11.315 5.15735 11.1163 4.67768 10.7627 4.32401C10.409 3.97035 9.92932 3.77167 9.42917 3.77167C8.92901 3.77167 8.44934 3.97035 8.09568 4.32401C7.74202 4.67768 7.54333 5.15735 7.54333 5.6575C7.50281 7.0783 7.77543 8.49062 8.34186 9.79426C8.90829 11.0979 9.75466 12.2609 10.8209 13.2008H7.54333C5.54272 13.2008 3.62404 13.9956 2.20939 15.4102C0.794742 16.8249 0 18.7435 0 20.7442L0 22.63C0 23.6303 0.397371 24.5896 1.1047 25.297C1.81202 26.0043 2.77136 26.4017 3.77167 26.4017V35.8308C3.77466 38.3307 4.76905 40.7273 6.53671 42.495C8.30438 44.2626 10.701 45.257 13.2008 45.26H32.0592C34.559 45.257 36.9556 44.2626 38.7233 42.495C40.491 40.7273 41.4853 38.3307 41.4883 35.8308V26.4017C42.4886 26.4017 43.448 26.0043 44.1553 25.297C44.8626 24.5896 45.26 23.6303 45.26 22.63V20.7442C45.26 18.7435 44.4653 16.8249 43.0506 15.4102C41.636 13.9956 39.7173 13.2008 37.7167 13.2008ZM22.63 3.77167C23.1302 3.77167 23.6098 3.97035 23.9635 4.32401C24.3171 4.67768 24.5158 5.15735 24.5158 5.6575C24.2882 7.66182 23.646 9.59683 22.63 11.3395C21.614 9.59683 20.9718 7.66182 20.7442 5.6575C20.7442 5.15735 20.9429 4.67768 21.2965 4.32401C21.6502 3.97035 22.1298 3.77167 22.63 3.77167V3.77167ZM3.77167 20.7442C3.77167 19.7439 4.16904 18.7845 4.87636 18.0772C5.58369 17.3699 6.54302 16.9725 7.54333 16.9725H20.7442V22.63H3.77167V20.7442ZM7.54333 35.8308V26.4017H20.7442V41.4883H13.2008C11.7004 41.4883 10.2614 40.8923 9.20038 39.8313C8.13939 38.7703 7.54333 37.3313 7.54333 35.8308V35.8308ZM37.7167 35.8308C37.7167 37.3313 37.1206 38.7703 36.0596 39.8313C34.9986 40.8923 33.5596 41.4883 32.0592 41.4883H24.5158V26.4017H37.7167V35.8308ZM24.5158 22.63V16.9725H37.7167C38.717 16.9725 39.6763 17.3699 40.3836 18.0772C41.091 18.7845 41.4883 19.7439 41.4883 20.7442V22.63H24.5158Z" fill="white"/>
</g>
<defs>
<clipPath id="clip0_1_1857">
<rect width="45.26" height="45.26" fill="white"/>
</clipPath>
</defs>
</svg>
