<svg width="46" height="46" viewBox="0 0 46 46" fill="none" xmlns="http://www.w3.org/2000/svg">
<g id="fi-rr-comment-info" clip-path="url(#clip0_1_1841)">
<path id="Vector" d="M25.4584 12.2577C25.4584 13.008 25.1604 13.7275 24.6299 14.258C24.0994 14.7885 23.3799 15.0865 22.6297 15.0865C21.8795 15.0865 21.16 14.7885 20.6295 14.258C20.099 13.7275 19.8009 13.008 19.8009 12.2577C19.8009 11.5075 20.099 10.788 20.6295 10.2575C21.16 9.72701 21.8795 9.42899 22.6297 9.42899C23.3799 9.42899 24.0994 9.72701 24.6299 10.2575C25.1604 10.788 25.4584 11.5075 25.4584 12.2577V12.2577ZM45.2597 35.8307V23.271C45.33 17.4578 43.1987 11.8332 39.2935 7.5265C35.3884 3.21978 29.9986 0.549799 24.2062 0.0526223C20.9733 -0.173569 17.7294 0.29729 14.6942 1.43334C11.6589 2.56939 8.9031 4.34413 6.61315 6.63748C4.32319 8.93083 2.55254 11.6893 1.42099 14.7262C0.289444 17.7631 -0.176606 21.0077 0.0543782 24.2403C0.887917 36.2229 11.4693 45.2598 24.672 45.2598H35.8305C38.3304 45.2568 40.727 44.2624 42.4946 42.4948C44.2623 40.7271 45.2567 38.3305 45.2597 35.8307V35.8307ZM23.9498 3.81675C28.7897 4.2449 33.2883 6.4888 36.5416 10.0976C39.795 13.7064 41.5622 18.4128 41.488 23.271V35.8307C41.488 37.3311 40.892 38.7701 39.831 39.8311C38.77 40.8921 37.331 41.4882 35.8305 41.4882H24.672C13.2929 41.4882 4.52569 34.1334 3.8185 23.9801C3.63284 21.3938 3.98252 18.797 4.84568 16.352C5.70885 13.907 7.06695 11.6662 8.83514 9.7697C10.6033 7.8732 12.7436 6.3617 15.1223 5.32965C17.501 4.2976 20.0669 3.76716 22.6599 3.77149C23.0879 3.77149 23.5198 3.78846 23.9498 3.81675ZM26.4014 33.9448V22.6298C26.4014 21.6295 26.004 20.6702 25.2967 19.9628C24.5893 19.2555 23.63 18.8582 22.6297 18.8582H20.7439C20.2437 18.8582 19.764 19.0568 19.4104 19.4105C19.0567 19.7642 18.858 20.2438 18.858 20.744C18.858 21.2441 19.0567 21.7238 19.4104 22.0775C19.764 22.4311 20.2437 22.6298 20.7439 22.6298H22.6297V33.9448C22.6297 34.445 22.8284 34.9246 23.182 35.2783C23.5357 35.632 24.0154 35.8307 24.5155 35.8307C25.0157 35.8307 25.4953 35.632 25.849 35.2783C26.2027 34.9246 26.4014 34.445 26.4014 33.9448Z" fill="white"/>
</g>
<defs>
<clipPath id="clip0_1_1841">
<rect width="45.26" height="45.26" fill="white"/>
</clipPath>
</defs>
</svg>
