<svg  xmlns="http://www.w3.org/2000/svg">
  <symbol id="icon-link" stroke="currentColor" fill="currentColor">
    <path d="M26.1113 28.7782L19.9593 34.2149C18.1731 35.7512 15.7743 36.6042 13.2819 36.5894C10.7895 36.5747 8.40385 35.6933 6.64116 34.136C4.87846 32.5787 3.88045 30.4708 3.86305 28.2682C3.84564 26.0656 4.81025 23.9455 6.54816 22.3666L12.7002 16.9249C13.0538 16.6122 13.2524 16.1881 13.2522 15.746C13.252 15.3039 13.0531 14.8799 12.6992 14.5674C12.3454 14.2549 11.8655 14.0794 11.3652 14.0796C10.8649 14.0797 10.3852 14.2555 10.0315 14.5683L3.88141 20.0099C1.39622 22.2072 0.000550502 25.187 0.00143475 28.2937C0.00231899 31.4004 1.39968 34.3795 3.88612 36.5757C6.37256 38.7719 9.7444 40.0053 13.2599 40.0045C16.7753 40.0037 20.1465 38.7689 22.6317 36.5716L28.7837 31.1349C29.1272 30.8206 29.3173 30.3996 29.313 29.9626C29.3087 29.5256 29.1104 29.1075 28.7607 28.7985C28.411 28.4895 27.938 28.3142 27.4435 28.3104C26.949 28.3066 26.4726 28.4746 26.1169 28.7782H26.1113Z" fill="currentColor"/>
    <path d="M41.3858 3.43571C40.1586 2.34374 38.6983 1.47784 37.0897 0.888206C35.481 0.298568 33.756 -0.00308937 32.0144 0.000712455V0.000712455C30.2738 -0.00337376 28.5495 0.297509 26.9413 0.885965C25.3331 1.47442 23.8728 2.33877 22.645 3.42905L16.4835 8.86738C16.1296 9.17989 15.9307 9.60384 15.9305 10.046C15.9304 10.4881 16.1289 10.9121 16.4826 11.2249C16.8362 11.5376 17.3159 11.7134 17.8162 11.7136C18.3165 11.7137 18.7964 11.5382 19.1503 11.2257L25.3079 5.78905C26.186 5.00846 27.2305 4.38955 28.381 3.96814C29.5315 3.54674 30.7652 3.33121 32.0107 3.33405V3.33405C33.8858 3.33459 35.7187 3.82643 37.2776 4.74738C38.8365 5.66833 40.0514 6.97704 40.7688 8.50808C41.4861 10.0391 41.6738 11.7237 41.3079 13.349C40.9421 14.9743 40.0392 16.4672 38.7134 17.639L32.5614 23.0757C32.2075 23.3884 32.0087 23.8126 32.0087 24.2549C32.0087 24.6972 32.2075 25.1213 32.5614 25.434C32.9152 25.7468 33.3952 25.9225 33.8957 25.9225C34.3962 25.9225 34.8761 25.7468 35.23 25.434L41.382 20.0007C43.864 17.8025 45.2583 14.8242 45.259 11.7189C45.2597 8.61359 43.8668 5.63477 41.3858 3.43571V3.43571Z" fill="currentColor"/>
    <path d="M26.9565 13.8219L15.6407 23.8218C15.4606 23.9756 15.3169 24.1595 15.2181 24.3628C15.1192 24.5662 15.0672 24.7849 15.065 25.0062C15.0628 25.2275 15.1106 25.4469 15.2054 25.6518C15.3002 25.8566 15.4402 26.0427 15.6173 26.1992C15.7944 26.3556 16.005 26.4794 16.2368 26.5632C16.4685 26.647 16.7169 26.6892 16.9673 26.6872C17.2177 26.6853 17.4652 26.6393 17.6953 26.552C17.9254 26.4647 18.1335 26.3377 18.3075 26.1785L29.6232 16.1785C29.9668 15.8642 30.1569 15.4432 30.1526 15.0062C30.1483 14.5692 29.9499 14.1512 29.6003 13.8422C29.2506 13.5331 28.7776 13.3579 28.2831 13.3541C27.7886 13.3503 27.3122 13.5183 26.9565 13.8219Z" fill="currentColor"/>
  </symbol>
</svg>
