<svg  viewBox="0 0 203 194" fill="none" xmlns="http://www.w3.org/2000/svg">
<g clip-path="url(#clip0_106_4980)">
<path d="M101.502 16.1674C112.722 16.2026 123.823 18.3639 134.163 22.5264C144.503 26.6889 153.877 32.7699 161.742 40.4174H126.877V56.584H170.378C174.542 56.5798 178.535 54.9969 181.479 52.1828C184.424 49.3686 186.08 45.5531 186.085 41.5733V0.000707925H169.168V24.8812C154.599 12.3428 136.536 4.11234 117.17 1.18741C97.8038 -1.73752 77.9657 0.768681 60.0601 8.40223C42.1545 16.0358 26.9502 28.4689 16.2902 44.1947C5.63013 59.9204 -0.0280054 78.2635 0.00158028 97.0007H16.9182C16.9429 75.5696 25.8622 55.023 41.7193 39.8689C57.5765 24.7148 79.0762 16.1909 101.502 16.1674Z" fill="#C1EF5D" fill-opacity="0.4"/>
<path d="M186.085 97C186.109 113.048 181.127 128.739 171.776 142.068C162.424 155.398 149.127 165.761 133.584 171.834C118.04 177.907 100.954 179.415 84.5099 176.164C68.0654 172.913 53.0081 165.051 41.261 153.583H76.1263V137.417H32.6251C28.4607 137.421 24.4681 139.004 21.5234 141.818C18.5787 144.632 16.9224 148.448 16.918 152.427V194H33.8346V169.119C48.4043 181.658 66.4669 189.888 85.833 192.813C105.199 195.738 125.037 193.232 142.943 185.598C160.848 177.965 176.053 165.532 186.713 149.806C197.373 134.08 203.031 115.737 203.001 97H186.085Z" fill="#C1EF5D" fill-opacity="0.4"/>
</g>
<defs>
<clipPath id="clip0_106_4980">
<rect width="203" height="194" fill="white"/>
</clipPath>
</defs>
</svg>
