<svg xmlns="http://www.w3.org/2000/svg" fill="none" viewBox="5.975609756097561 9.516 47.5609756097561 39.528" width="47.5609756097561" height="39.528">
  <path fill="white" d="M12.3677 29.6C8.93434 31.7 7.21767 34.0667 7.21767 36.7V42.1C7.21767 44.3667 7.68434 45.9333 8.61767 46.8C9.48434 47.6 10.9677 48 13.0677 48H31.1177V44.6H27.9677V13.9H31.1177V10.5H8.51767V19.75H11.9177V13.9H23.8677V22.35L12.3677 29.6ZM11.3177 34.35L23.8677 26.45V44.6H11.3177V34.35Z"/>
  <path fill="white" d="M48.1117 25.15C50.0117 25.15 51.2951 25.5667 51.9617 26.4C52.5284 27.1333 52.8117 28.3333 52.8117 30L52.8117 41.95C52.8117 43.85 52.5284 45.1667 51.9617 45.9C51.4284 46.6333 50.7617 47.1667 49.9617 47.5C49.1951 47.8333 48.1617 48 46.8617 48L37.5617 48C34.3617 48 32.5451 46.8 32.1117 44.4C31.9784 43.6667 31.9117 42.8667 31.9117 42V38.5H35.8117V44.6L48.7617 44.6L48.7617 28.55L32.4617 28.55L32.4617 10.5L51.3117 10.5V13.9L36.3617 13.9V25.15L48.1117 25.15Z"/>
</svg>
