<svg xmlns="http://www.w3.org/2000/svg" fill="none" viewBox="5.975609756097561 9.516 47.5609756097561 39.528" style="max-height: 500px" width="47.5609756097561" height="39.528">
<mask fill="black" height="40" width="26" y="9" x="6.11768" maskUnits="userSpaceOnUse" id="path-1-outside-1_1_1836">
<rect height="40" width="26" y="9" x="6.11768" fill="white"/>
<path d="M12.3677 29.6C8.93434 31.7 7.21767 34.0667 7.21767 36.7V42.1C7.21767 44.3667 7.68434 45.9333 8.61767 46.8C9.48434 47.6 10.9677 48 13.0677 48H31.1177V44.6H27.9677V13.9H31.1177V10.5H8.51767V19.75H11.9177V13.9H23.8677V22.35L12.3677 29.6ZM11.3177 34.35L23.8677 26.45V44.6H11.3177V34.35Z"/>
</mask>
<path fill="white" d="M12.3677 29.6C8.93434 31.7 7.21767 34.0667 7.21767 36.7V42.1C7.21767 44.3667 7.68434 45.9333 8.61767 46.8C9.48434 47.6 10.9677 48 13.0677 48H31.1177V44.6H27.9677V13.9H31.1177V10.5H8.51767V19.75H11.9177V13.9H23.8677V22.35L12.3677 29.6ZM11.3177 34.35L23.8677 26.45V44.6H11.3177V34.35Z"/>
<path mask="url(#path-1-outside-1_1_1836)" fill="black" d="M12.3677 29.6L12.901 30.446L12.8895 30.4531L12.3677 29.6ZM8.61767 46.8L7.93939 47.5348L7.93722 47.5328L8.61767 46.8ZM31.1177 48H32.1177V49H31.1177V48ZM31.1177 44.6V43.6H32.1177V44.6H31.1177ZM27.9677 44.6V45.6H26.9677V44.6H27.9677ZM27.9677 13.9H26.9677V12.9H27.9677V13.9ZM31.1177 13.9H32.1177V14.9H31.1177V13.9ZM31.1177 10.5V9.5H32.1177V10.5H31.1177ZM8.51767 10.5H7.51767V9.5H8.51767V10.5ZM8.51767 19.75V20.75H7.51767V19.75H8.51767ZM11.9177 19.75H12.9177V20.75H11.9177V19.75ZM11.9177 13.9H10.9177V12.9H11.9177V13.9ZM23.8677 13.9V12.9H24.8677V13.9H23.8677ZM23.8677 22.35H24.8677V22.9017L24.401 23.1959L23.8677 22.35ZM11.3177 34.35H10.3177V33.7979L10.785 33.5037L11.3177 34.35ZM23.8677 26.45L23.335 25.6037L24.8677 24.6389V26.45H23.8677ZM23.8677 44.6H24.8677V45.6H23.8677V44.6ZM11.3177 44.6V45.6H10.3177V44.6H11.3177ZM12.8895 30.4531C9.58568 32.4738 8.21767 34.5742 8.21767 36.7H6.21767C6.21767 33.5591 8.283 30.9262 11.8459 28.7469L12.8895 30.4531ZM8.21767 36.7V42.1H6.21767V36.7H8.21767ZM8.21767 42.1C8.21767 44.2899 8.67988 45.4931 9.29812 46.0672L7.93722 47.5328C6.6888 46.3735 6.21767 44.4435 6.21767 42.1H8.21767ZM9.29595 46.0652C9.87919 46.6036 11.041 47 13.0677 47V49C10.8943 49 9.08949 48.5964 7.93939 47.5348L9.29595 46.0652ZM13.0677 47H31.1177V49H13.0677V47ZM30.1177 48V44.6H32.1177V48H30.1177ZM31.1177 45.6H27.9677V43.6H31.1177V45.6ZM26.9677 44.6V13.9H28.9677V44.6H26.9677ZM27.9677 12.9H31.1177V14.9H27.9677V12.9ZM30.1177 13.9V10.5H32.1177V13.9H30.1177ZM31.1177 11.5H8.51767V9.5H31.1177V11.5ZM9.51767 10.5V19.75H7.51767V10.5H9.51767ZM8.51767 18.75H11.9177V20.75H8.51767V18.75ZM10.9177 19.75V13.9H12.9177V19.75H10.9177ZM11.9177 12.9H23.8677V14.9H11.9177V12.9ZM24.8677 13.9V22.35H22.8677V13.9H24.8677ZM24.401 23.1959L12.901 30.4459L11.8344 28.7541L23.3344 21.5041L24.401 23.1959ZM10.785 33.5037L23.335 25.6037L24.4004 27.2963L11.8504 35.1963L10.785 33.5037ZM24.8677 26.45V44.6H22.8677V26.45H24.8677ZM23.8677 45.6H11.3177V43.6H23.8677V45.6ZM10.3177 44.6V34.35H12.3177V44.6H10.3177Z"/>
<g filter="url(#filter0_d_1_1836)">
<mask fill="black" height="40" width="24" y="9" x="30.4117" maskUnits="userSpaceOnUse" id="path-3-outside-2_1_1836">
<rect height="40" width="24" y="9" x="30.4117" fill="white"/>
<path d="M48.1117 25.15C50.0117 25.15 51.2951 25.5667 51.9617 26.4C52.5284 27.1333 52.8117 28.3333 52.8117 30L52.8117 41.95C52.8117 43.85 52.5284 45.1667 51.9617 45.9C51.4284 46.6333 50.7617 47.1667 49.9617 47.5C49.1951 47.8333 48.1617 48 46.8617 48L37.5617 48C34.3617 48 32.5451 46.8 32.1117 44.4C31.9784 43.6667 31.9117 42.8667 31.9117 42V38.5H35.8117V44.6L48.7617 44.6L48.7617 28.55L32.4617 28.55L32.4617 10.5L51.3117 10.5V13.9L36.3617 13.9V25.15L48.1117 25.15Z"/>
</mask>
<path fill="white" d="M48.1117 25.15C50.0117 25.15 51.2951 25.5667 51.9617 26.4C52.5284 27.1333 52.8117 28.3333 52.8117 30L52.8117 41.95C52.8117 43.85 52.5284 45.1667 51.9617 45.9C51.4284 46.6333 50.7617 47.1667 49.9617 47.5C49.1951 47.8333 48.1617 48 46.8617 48L37.5617 48C34.3617 48 32.5451 46.8 32.1117 44.4C31.9784 43.6667 31.9117 42.8667 31.9117 42V38.5H35.8117V44.6L48.7617 44.6L48.7617 28.55L32.4617 28.55L32.4617 10.5L51.3117 10.5V13.9L36.3617 13.9V25.15L48.1117 25.15Z"/>
<path mask="url(#path-3-outside-2_1_1836)" fill="black" d="M51.9617 26.4L52.753 25.7886L52.7479 25.7819L52.7426 25.7753L51.9617 26.4ZM51.9617 45.9L51.1705 45.2886L51.1616 45.3001L51.153 45.3118L51.9617 45.9ZM49.9617 47.5L49.5771 46.5769L49.5701 46.5799L49.563 46.5829L49.9617 47.5ZM32.1117 44.4L33.0958 44.2223L33.0956 44.2211L32.1117 44.4ZM31.9117 38.5V37.5H30.9117V38.5H31.9117ZM35.8117 38.5H36.8117V37.5H35.8117V38.5ZM35.8117 44.6H34.8117V45.6H35.8117V44.6ZM48.7617 44.6V45.6H49.7617V44.6H48.7617ZM48.7617 28.55H49.7617V27.55H48.7617V28.55ZM32.4617 28.55H31.4617V29.55H32.4617V28.55ZM32.4617 10.5V9.5H31.4617V10.5H32.4617ZM51.3117 10.5H52.3117V9.5H51.3117V10.5ZM51.3117 13.9V14.9H52.3117V13.9H51.3117ZM36.3617 13.9L36.3617 12.9H35.3617L35.3617 13.9H36.3617ZM36.3617 25.15H35.3617V26.15H36.3617V25.15ZM48.1117 26.15C49.9334 26.15 50.8103 26.5614 51.1809 27.0247L52.7426 25.7753C51.7799 24.5719 50.0901 24.15 48.1117 24.15V26.15ZM51.1705 27.0114C51.5302 27.477 51.8117 28.3986 51.8117 30H53.8117C53.8117 28.268 53.5266 26.7897 52.753 25.7886L51.1705 27.0114ZM51.8117 30L51.8117 41.95H53.8117L53.8117 30H51.8117ZM51.8117 41.95C51.8117 43.8214 51.5185 44.8381 51.1705 45.2886L52.753 46.5114C53.5383 45.4952 53.8117 43.8786 53.8117 41.95H51.8117ZM51.153 45.3118C50.7224 45.9039 50.1997 46.3175 49.5771 46.5769L50.3464 48.4231C51.3238 48.0158 52.1344 47.3628 52.7705 46.4882L51.153 45.3118ZM49.563 46.5829C48.9724 46.8397 48.0927 47 46.8617 47V49C48.2308 49 49.4177 48.827 50.3605 48.4171L49.563 46.5829ZM46.8617 47L37.5617 47V49L46.8617 49V47ZM37.5617 47C36.0707 47 35.0352 46.718 34.3504 46.2656C33.6985 45.835 33.2704 45.189 33.0958 44.2223L31.1277 44.5777C31.3864 46.011 32.0833 47.165 33.2481 47.9344C34.3799 48.682 35.8527 49 37.5617 49V47ZM33.0956 44.2211C32.9746 43.5554 32.9117 42.8161 32.9117 42H30.9117C30.9117 42.9172 30.9822 43.7779 31.1279 44.5789L33.0956 44.2211ZM32.9117 42V38.5H30.9117V42H32.9117ZM31.9117 39.5H35.8117V37.5H31.9117V39.5ZM34.8117 38.5V44.6H36.8117V38.5H34.8117ZM35.8117 45.6L48.7617 45.6V43.6L35.8117 43.6V45.6ZM49.7617 44.6L49.7617 28.55H47.7617L47.7617 44.6H49.7617ZM48.7617 27.55L32.4617 27.55V29.55L48.7617 29.55V27.55ZM33.4617 28.55L33.4617 10.5H31.4617L31.4617 28.55H33.4617ZM32.4617 11.5L51.3117 11.5V9.5L32.4617 9.5V11.5ZM50.3117 10.5V13.9L52.3117 13.9V10.5L50.3117 10.5ZM51.3117 12.9L36.3617 12.9L36.3617 14.9L51.3117 14.9V12.9ZM35.3617 13.9V25.15H37.3617V13.9H35.3617ZM36.3617 26.15L48.1117 26.15V24.15L36.3617 24.15V26.15Z"/>
</g>
<defs>
<filter color-interpolation-filters="sRGB" filterUnits="userSpaceOnUse" height="45.5" width="28.9" y="10.5" x="27.9117" id="filter0_d_1_1836">
<feFlood result="BackgroundImageFix" flood-opacity="0"/>
<feColorMatrix result="hardAlpha" values="0 0 0 0 0 0 0 0 0 0 0 0 0 0 0 0 0 0 127 0" type="matrix" in="SourceAlpha"/>
<feOffset dy="4"/>
<feGaussianBlur stdDeviation="2"/>
<feComposite operator="out" in2="hardAlpha"/>
<feColorMatrix values="0 0 0 0 0 0 0 0 0 0 0 0 0 0 0 0 0 0 0.25 0" type="matrix"/>
<feBlend result="effect1_dropShadow_1_1836" in2="BackgroundImageFix" mode="normal"/>
<feBlend result="shape" in2="effect1_dropShadow_1_1836" in="SourceGraphic" mode="normal"/>
</filter>
</defs>
</svg>