<svg width="46" height="46" viewBox="0 0 46 46" fill="none" xmlns="http://www.w3.org/2000/svg">
<g id="fi-rr-settings" clip-path="url(#clip0_1_1840)">
<path id="Vector" d="M22.6302 15.0878C21.1383 15.0878 19.6798 15.5302 18.4393 16.3591C17.1988 17.188 16.232 18.3661 15.6611 19.7445C15.0901 21.1228 14.9407 22.6395 15.2318 24.1028C15.5229 25.5661 16.2413 26.9102 17.2962 27.9651C18.3512 29.0201 19.6953 29.7385 21.1586 30.0296C22.6218 30.3206 24.1385 30.1712 25.5169 29.6003C26.8953 29.0294 28.0734 28.0625 28.9022 26.822C29.7311 25.5815 30.1735 24.1231 30.1735 22.6312C30.1735 20.6305 29.3788 18.7119 27.9641 17.2972C26.5495 15.8826 24.6308 15.0878 22.6302 15.0878V15.0878ZM22.6302 26.4028C21.8842 26.4028 21.155 26.1816 20.5348 25.7672C19.9145 25.3528 19.4311 24.7637 19.1456 24.0745C18.8602 23.3853 18.7855 22.627 18.931 21.8953C19.0765 21.1637 19.4357 20.4917 19.9632 19.9642C20.4907 19.4367 21.1627 19.0775 21.8944 18.932C22.626 18.7864 23.3844 18.8611 24.0735 19.1466C24.7627 19.4321 25.3518 19.9155 25.7662 20.5357C26.1807 21.156 26.4019 21.8852 26.4019 22.6312C26.4019 23.6315 26.0045 24.5908 25.2972 25.2981C24.5898 26.0055 23.6305 26.4028 22.6302 26.4028Z" fill="white"/>
<path id="Vector_2" d="M40.157 26.2131L39.3197 25.7303C39.6967 23.6794 39.6967 21.5769 39.3197 19.5259L40.157 19.0431C40.8009 18.6717 41.3654 18.177 41.8181 17.5874C42.2708 16.9978 42.603 16.3248 42.7956 15.6068C42.9882 14.8888 43.0375 14.14 42.9407 13.4029C42.844 12.6659 42.6029 11.9551 42.2315 11.3112C41.86 10.6673 41.3653 10.1029 40.7757 9.65019C40.1861 9.19747 39.5131 8.86531 38.7951 8.67269C38.0772 8.48006 37.3283 8.43073 36.5912 8.52753C35.8542 8.62432 35.1434 8.86533 34.4995 9.23681L33.6603 9.72147C32.0754 8.36729 30.2539 7.3175 28.2876 6.62493V5.6575C28.2876 4.15704 27.6916 2.71803 26.6306 1.65704C25.5696 0.596056 24.1306 0 22.6301 0C21.1296 0 19.6906 0.596056 18.6296 1.65704C17.5687 2.71803 16.9726 4.15704 16.9726 5.6575V6.62493C15.0064 7.31999 13.1856 8.37235 11.6018 9.72901L10.7588 9.24058C9.45838 8.49035 7.91322 8.28743 6.4632 8.67646C5.01319 9.06549 3.7771 10.0146 3.02687 11.315C2.27664 12.6154 2.07372 14.1606 2.46274 15.6106C2.85177 17.0606 3.80088 18.2967 5.10129 19.0469L5.9386 19.5297C5.56164 21.5806 5.56164 23.6831 5.9386 25.7341L5.10129 26.2169C3.80088 26.9671 2.85177 28.2032 2.46274 29.6532C2.07372 31.1032 2.27664 32.6484 3.02687 33.9488C3.7771 35.2492 5.01319 36.1983 6.4632 36.5873C7.91322 36.9763 9.45838 36.7734 10.7588 36.0232L11.598 35.5385C13.1835 36.8929 15.0056 37.9427 16.9726 38.6351V39.6025C16.9726 41.103 17.5687 42.542 18.6296 43.603C19.6906 44.6639 21.1296 45.26 22.6301 45.26C24.1306 45.26 25.5696 44.6639 26.6306 43.603C27.6916 42.542 28.2876 41.103 28.2876 39.6025V38.6351C30.2538 37.94 32.0746 36.8877 33.6585 35.531L34.5014 36.0175C35.8018 36.7678 37.347 36.9707 38.797 36.5817C40.247 36.1926 41.4831 35.2435 42.2333 33.9431C42.9836 32.6427 43.1865 31.0975 42.7975 29.6475C42.4084 28.1975 41.4593 26.9614 40.1589 26.2112L40.157 26.2131ZM35.3519 19.0922C35.9906 21.4062 35.9906 23.85 35.3519 26.164C35.2404 26.5668 35.2659 26.9952 35.4242 27.3819C35.5826 27.7687 35.865 28.0919 36.227 28.3007L38.2712 29.4812C38.7046 29.7313 39.0209 30.1433 39.1505 30.6266C39.2801 31.1099 39.2124 31.6248 38.9624 32.0582C38.7123 32.4916 38.3003 32.8079 37.817 32.9375C37.3337 33.0671 36.8188 32.9995 36.3854 32.7494L34.3374 31.5651C33.9751 31.3553 33.5533 31.2719 33.1384 31.3283C32.7236 31.3846 32.3393 31.5774 32.0461 31.8762C30.3675 33.5898 28.2529 34.8124 25.9303 35.4122C25.5249 35.5164 25.1657 35.7525 24.9093 36.0834C24.6529 36.4142 24.5138 36.821 24.5141 37.2395V39.6025C24.5141 40.1027 24.3154 40.5823 23.9617 40.936C23.608 41.2896 23.1284 41.4883 22.6282 41.4883C22.1281 41.4883 21.6484 41.2896 21.2947 40.936C20.9411 40.5823 20.7424 40.1027 20.7424 39.6025V37.2414C20.7426 36.8229 20.6035 36.4161 20.3471 36.0853C20.0907 35.7544 19.7315 35.5183 19.3261 35.4141C17.0034 34.8119 14.8894 33.5866 13.2123 31.8706C12.9191 31.5717 12.5347 31.379 12.1199 31.3226C11.705 31.2663 11.2832 31.3496 10.921 31.5594L8.87672 32.7418C8.66217 32.8676 8.42486 32.9497 8.17845 32.9834C7.93204 33.0171 7.68139 33.0017 7.44095 32.9382C7.20051 32.8746 6.97502 32.7641 6.77745 32.613C6.57989 32.4619 6.41416 32.2733 6.28981 32.0579C6.16545 31.8425 6.08493 31.6047 6.05287 31.358C6.02081 31.1114 6.03786 30.8609 6.10302 30.6209C6.16818 30.3808 6.28018 30.1561 6.43256 29.9595C6.58494 29.763 6.77469 29.5985 6.99089 29.4756L9.03513 28.295C9.39712 28.0862 9.67948 27.763 9.83786 27.3763C9.99624 26.9895 10.0217 26.5612 9.91016 26.1584C9.27154 23.8444 9.27154 21.4006 9.91016 19.0865C10.0197 18.6846 9.99302 18.2578 9.83438 17.8726C9.67574 17.4874 9.39404 17.1656 9.03325 16.9574L6.989 15.7769C6.55562 15.5268 6.23933 15.1148 6.10971 14.6315C5.9801 14.1482 6.04777 13.6333 6.29785 13.1999C6.54792 12.7665 6.95992 12.4502 7.4432 12.3206C7.92648 12.191 8.44145 12.2587 8.87484 12.5087L10.9229 13.693C11.2841 13.9033 11.7051 13.9876 12.1195 13.9327C12.5339 13.8777 12.9183 13.6866 13.2123 13.3894C14.8908 11.6758 17.0055 10.4532 19.328 9.85348C19.7347 9.74894 20.0948 9.51168 20.3513 9.1793C20.6079 8.84692 20.7462 8.43843 20.7443 8.01856V5.6575C20.7443 5.15735 20.943 4.67768 21.2966 4.32401C21.6503 3.97035 22.13 3.77167 22.6301 3.77167C23.1303 3.77167 23.6099 3.97035 23.9636 4.32401C24.3173 4.67768 24.5159 5.15735 24.5159 5.6575V8.01856C24.5157 8.43714 24.6548 8.84389 24.9112 9.17473C25.1676 9.50558 25.5268 9.74171 25.9322 9.84594C28.2556 10.4478 30.3703 11.6731 32.048 13.3894C32.3412 13.6883 32.7255 13.881 33.1403 13.9374C33.5552 13.9937 33.977 13.9104 34.3392 13.7006L36.3835 12.5182C36.598 12.3924 36.8354 12.3103 37.0818 12.2766C37.3282 12.2429 37.5788 12.2583 37.8193 12.3218C38.0597 12.3854 38.2852 12.4959 38.4828 12.647C38.6803 12.7981 38.8461 12.9867 38.9704 13.2021C39.0948 13.4175 39.1753 13.6553 39.2073 13.902C39.2394 14.1486 39.2224 14.3991 39.1572 14.6391C39.092 14.8792 38.98 15.1039 38.8277 15.3005C38.6753 15.497 38.4855 15.6615 38.2693 15.7844L36.2251 16.965C35.865 17.1737 35.5841 17.4958 35.4261 17.8809C35.2682 18.266 35.2421 18.6926 35.3519 19.0941V19.0922Z" fill="white"/>
</g>
<defs>
<clipPath id="clip0_1_1840">
<rect width="45.26" height="45.26" fill="white"/>
</clipPath>
</defs>
</svg>
