<svg  fill="none" xmlns="http://www.w3.org/2000/svg">
<symbol id="icon-star" stroke="currentColor" fill="currentColor">
<path d="M110.24 37.742C109.294 34.9477 107.404 32.51 104.85 30.7896C102.295 29.0692 99.2117 28.1572 96.0554 28.1887H75.8488L69.7114 10.4384C68.7463 7.64432 66.8498 5.2069 64.2954 3.47758C61.741 1.74825 58.6608 0.816406 55.4988 0.816406C52.3369 0.816406 49.2566 1.74825 46.7022 3.47758C44.1478 5.2069 42.2513 7.64432 41.2862 10.4384L35.1488 28.1887H14.9422C11.796 28.1929 8.7317 29.1195 6.18697 30.8363C3.64224 32.553 1.74726 34.9721 0.772678 37.7479C-0.201899 40.5238 -0.206212 43.5144 0.760354 46.2926C1.72692 49.0709 3.61492 51.4946 6.15469 53.2177L22.6012 64.376L16.3482 82.3453C15.3377 85.1322 15.3249 88.1476 16.3117 90.9418C17.2985 93.7361 19.2321 96.1596 21.8242 97.8511C24.3719 99.5968 27.4593 100.532 30.6263 100.517C33.7933 100.503 36.8704 99.5388 39.3992 97.7695L55.4988 86.7743L71.6031 97.7566C74.1461 99.4924 77.2169 100.435 80.3738 100.449C83.5307 100.464 86.6112 99.5488 89.1724 97.8361C91.7335 96.1234 93.6435 93.7012 94.6276 90.9177C95.6118 88.1343 95.6194 85.133 94.6494 82.3453L88.3964 64.376L104.861 53.2177C107.43 51.5163 109.34 49.0925 110.309 46.3053C111.278 43.5181 111.254 40.5155 110.24 37.742ZM99.4039 46.2867L80.2379 59.2861C79.4507 59.819 78.865 60.569 78.5643 61.4291C78.2637 62.2892 78.2634 63.2154 78.5637 64.0756L85.8481 84.9761C86.2167 86.0361 86.2135 87.1773 85.8391 88.2356C85.4646 89.2939 84.7382 90.2148 83.7642 90.8658C82.7902 91.5169 81.6188 91.8645 80.4184 91.8588C79.218 91.8532 78.0505 91.4944 77.0837 90.8342L58.2368 77.9592C57.443 77.4181 56.4838 77.1263 55.4988 77.1263C54.5139 77.1263 53.5546 77.4181 52.7608 77.9592L33.9139 90.8342C32.9477 91.5033 31.7769 91.8695 30.5713 91.8796C29.3657 91.8898 28.1879 91.5434 27.2088 90.8906C26.2296 90.2379 25.4999 89.3127 25.1255 88.2492C24.7511 87.1858 24.7514 86.0393 25.1264 84.9761L32.4339 64.0756C32.7342 63.2154 32.734 62.2892 32.4333 61.4291C32.1326 60.569 31.5469 59.819 30.7597 59.2861L11.5937 46.2867C10.6285 45.6309 9.91127 44.7088 9.54455 43.6522C9.17782 42.5956 9.18031 41.4584 9.55168 40.4032C9.92305 39.348 10.6443 38.4287 11.6124 37.7765C12.5805 37.1244 13.7459 36.7728 14.9422 36.772H38.5297C39.5089 36.772 40.4628 36.4836 41.254 35.9484C42.0453 35.4131 42.6331 34.6587 42.9327 33.7936L50.1014 13.0606C50.4694 11.9996 51.1907 11.0744 52.1614 10.418C53.1322 9.76161 54.3023 9.40797 55.5034 9.40797C56.7046 9.40797 57.8747 9.76161 58.8455 10.418C59.8162 11.0744 60.5375 11.9996 60.9054 13.0606L68.0742 33.7936C68.3738 34.6587 68.9616 35.4131 69.7528 35.9484C70.5441 36.4836 71.498 36.772 72.4772 36.772H96.0647C97.261 36.7728 98.4264 37.1244 99.3945 37.7765C100.363 38.4287 101.084 39.348 101.455 40.4032C101.827 41.4584 101.829 42.5956 101.462 43.6522C101.096 44.7088 100.378 45.6309 99.4132 46.2867H99.4039Z" fill="currentColor"/>
</symbol>
</svg>
