<svg width="80" height="80" viewBox="0 0 80 80" fill="none" xmlns="http://www.w3.org/2000/svg">
<circle cx="40" cy="40" r="40" fill="#C1EF5D"/>
<mask id="path-2-outside-1_20_13051" maskUnits="userSpaceOnUse" x="16" y="19" width="26" height="40" fill="black">
<rect fill="white" x="16" y="19" width="26" height="40"/>
<path d="M22.25 39.6C18.8167 41.7 17.1 44.0667 17.1 46.7V52.1C17.1 54.3667 17.5667 55.9333 18.5 56.8C19.3667 57.6 20.85 58 22.95 58H41V54.6H37.85V23.9H41V20.5H18.4V29.75H21.8V23.9H33.75V32.35L22.25 39.6ZM21.2 44.35L33.75 36.45V54.6H21.2V44.35Z"/>
</mask>
<path d="M22.25 39.6C18.8167 41.7 17.1 44.0667 17.1 46.7V52.1C17.1 54.3667 17.5667 55.9333 18.5 56.8C19.3667 57.6 20.85 58 22.95 58H41V54.6H37.85V23.9H41V20.5H18.4V29.75H21.8V23.9H33.75V32.35L22.25 39.6ZM21.2 44.35L33.75 36.45V54.6H21.2V44.35Z" fill="white"/>
<path d="M22.25 39.6L22.7833 40.446L22.7718 40.4531L22.25 39.6ZM18.5 56.8L17.8217 57.5348L17.8195 57.5328L18.5 56.8ZM41 58H42V59H41V58ZM41 54.6V53.6H42V54.6H41ZM37.85 54.6V55.6H36.85V54.6H37.85ZM37.85 23.9H36.85V22.9H37.85V23.9ZM41 23.9H42V24.9H41V23.9ZM41 20.5V19.5H42V20.5H41ZM18.4 20.5H17.4V19.5H18.4V20.5ZM18.4 29.75V30.75H17.4V29.75H18.4ZM21.8 29.75H22.8V30.75H21.8V29.75ZM21.8 23.9H20.8V22.9H21.8V23.9ZM33.75 23.9V22.9H34.75V23.9H33.75ZM33.75 32.35H34.75V32.9017L34.2833 33.1959L33.75 32.35ZM21.2 44.35H20.2V43.7979L20.6673 43.5037L21.2 44.35ZM33.75 36.45L33.2173 35.6037L34.75 34.6389V36.45H33.75ZM33.75 54.6H34.75V55.6H33.75V54.6ZM21.2 54.6V55.6H20.2V54.6H21.2ZM22.7718 40.4531C19.468 42.4738 18.1 44.5742 18.1 46.7H16.1C16.1 43.5591 18.1653 40.9262 21.7282 38.7469L22.7718 40.4531ZM18.1 46.7V52.1H16.1V46.7H18.1ZM18.1 52.1C18.1 54.2899 18.5622 55.4931 19.1804 56.0672L17.8195 57.5328C16.5711 56.3735 16.1 54.4435 16.1 52.1H18.1ZM19.1783 56.0652C19.7615 56.6036 20.9234 57 22.95 57V59C20.7766 59 18.9718 58.5964 17.8217 57.5348L19.1783 56.0652ZM22.95 57H41V59H22.95V57ZM40 58V54.6H42V58H40ZM41 55.6H37.85V53.6H41V55.6ZM36.85 54.6V23.9H38.85V54.6H36.85ZM37.85 22.9H41V24.9H37.85V22.9ZM40 23.9V20.5H42V23.9H40ZM41 21.5H18.4V19.5H41V21.5ZM19.4 20.5V29.75H17.4V20.5H19.4ZM18.4 28.75H21.8V30.75H18.4V28.75ZM20.8 29.75V23.9H22.8V29.75H20.8ZM21.8 22.9H33.75V24.9H21.8V22.9ZM34.75 23.9V32.35H32.75V23.9H34.75ZM34.2833 33.1959L22.7833 40.4459L21.7167 38.7541L33.2167 31.5041L34.2833 33.1959ZM20.6673 43.5037L33.2173 35.6037L34.2827 37.2963L21.7327 45.1963L20.6673 43.5037ZM34.75 36.45V54.6H32.75V36.45H34.75ZM33.75 55.6H21.2V53.6H33.75V55.6ZM20.2 54.6V44.35H22.2V54.6H20.2Z" fill="black" mask="url(#path-2-outside-1_20_13051)"/>
<g filter="url(#filter0_d_20_13051)">
<mask id="path-4-outside-2_20_13051" maskUnits="userSpaceOnUse" x="41" y="19" width="24" height="40" fill="black">
<rect fill="white" x="41" y="19" width="24" height="40"/>
<path d="M58.7 35.15C60.6 35.15 61.8833 35.5667 62.55 36.4C63.1167 37.1333 63.4 38.3333 63.4 40L63.4 51.95C63.4 53.85 63.1167 55.1667 62.55 55.9C62.0167 56.6333 61.35 57.1667 60.55 57.5C59.7833 57.8333 58.75 58 57.45 58L48.15 58C44.95 58 43.1333 56.8 42.7 54.4C42.5667 53.6667 42.5 52.8667 42.5 52V48.5H46.4L46.4 54.6L59.35 54.6L59.35 38.55H43.05L43.05 20.5L61.9 20.5V23.9L46.95 23.9L46.95 35.15H58.7Z"/>
</mask>
<path d="M58.7 35.15C60.6 35.15 61.8833 35.5667 62.55 36.4C63.1167 37.1333 63.4 38.3333 63.4 40L63.4 51.95C63.4 53.85 63.1167 55.1667 62.55 55.9C62.0167 56.6333 61.35 57.1667 60.55 57.5C59.7833 57.8333 58.75 58 57.45 58L48.15 58C44.95 58 43.1333 56.8 42.7 54.4C42.5667 53.6667 42.5 52.8667 42.5 52V48.5H46.4L46.4 54.6L59.35 54.6L59.35 38.55H43.05L43.05 20.5L61.9 20.5V23.9L46.95 23.9L46.95 35.15H58.7Z" fill="white"/>
<path d="M62.55 36.4L63.3413 35.7886L63.3361 35.7819L63.3309 35.7753L62.55 36.4ZM62.55 55.9L61.7587 55.2886L61.7498 55.3001L61.7413 55.3118L62.55 55.9ZM60.55 57.5L60.1654 56.5769L60.1583 56.5799L60.1513 56.5829L60.55 57.5ZM42.7 54.4L43.6841 54.2223L43.6839 54.2211L42.7 54.4ZM42.5 48.5V47.5H41.5V48.5H42.5ZM46.4 48.5H47.4V47.5H46.4V48.5ZM46.4 54.6H45.4V55.6H46.4V54.6ZM59.35 54.6V55.6H60.35V54.6H59.35ZM59.35 38.55H60.35V37.55H59.35V38.55ZM43.05 38.55H42.05V39.55H43.05V38.55ZM43.05 20.5V19.5H42.05V20.5H43.05ZM61.9 20.5H62.9V19.5H61.9V20.5ZM61.9 23.9V24.9H62.9V23.9H61.9ZM46.95 23.9V22.9H45.95V23.9H46.95ZM46.95 35.15H45.95V36.15H46.95V35.15ZM58.7 36.15C60.5216 36.15 61.3985 36.5614 61.7691 37.0247L63.3309 35.7753C62.3681 34.5719 60.6784 34.15 58.7 34.15V36.15ZM61.7587 37.0114C62.1185 37.477 62.4 38.3986 62.4 40H64.4C64.4 38.268 64.1149 36.7897 63.3413 35.7886L61.7587 37.0114ZM62.4 40L62.4 51.95H64.4L64.4 40H62.4ZM62.4 51.95C62.4 53.8214 62.1068 54.8381 61.7587 55.2886L63.3413 56.5114C64.1266 55.4952 64.4 53.8786 64.4 51.95H62.4ZM61.7413 55.3118C61.3107 55.9039 60.7879 56.3175 60.1654 56.5769L60.9346 58.4231C61.9121 58.0158 62.7227 57.3628 63.3587 56.4882L61.7413 55.3118ZM60.1513 56.5829C59.5607 56.8397 58.681 57 57.45 57V59C58.819 59 60.006 58.827 60.9487 58.4171L60.1513 56.5829ZM57.45 57L48.15 57V59L57.45 59V57ZM48.15 57C46.659 57 45.6235 56.718 44.9387 56.2656C44.2868 55.835 43.8586 55.189 43.6841 54.2223L41.7159 54.5777C41.9747 56.011 42.6716 57.165 43.8363 57.9344C44.9682 58.682 46.441 59 48.15 59V57ZM43.6839 54.2211C43.5628 53.5554 43.5 52.8161 43.5 52H41.5C41.5 52.9172 41.5705 53.7779 41.7161 54.5789L43.6839 54.2211ZM43.5 52V48.5H41.5V52H43.5ZM42.5 49.5H46.4V47.5H42.5V49.5ZM45.4 48.5L45.4 54.6H47.4L47.4 48.5H45.4ZM46.4 55.6L59.35 55.6V53.6L46.4 53.6V55.6ZM60.35 54.6L60.35 38.55H58.35L58.35 54.6H60.35ZM59.35 37.55H43.05V39.55H59.35V37.55ZM44.05 38.55L44.05 20.5H42.05L42.05 38.55H44.05ZM43.05 21.5L61.9 21.5V19.5L43.05 19.5V21.5ZM60.9 20.5V23.9H62.9V20.5H60.9ZM61.9 22.9L46.95 22.9V24.9L61.9 24.9V22.9ZM45.95 23.9L45.95 35.15H47.95L47.95 23.9H45.95ZM46.95 36.15H58.7V34.15H46.95V36.15Z" fill="black" mask="url(#path-4-outside-2_20_13051)"/>
</g>
<defs>
<filter id="filter0_d_20_13051" x="38.5" y="20.5" width="28.9" height="45.5" filterUnits="userSpaceOnUse" color-interpolation-filters="sRGB">
<feFlood flood-opacity="0" result="BackgroundImageFix"/>
<feColorMatrix in="SourceAlpha" type="matrix" values="0 0 0 0 0 0 0 0 0 0 0 0 0 0 0 0 0 0 127 0" result="hardAlpha"/>
<feOffset dy="4"/>
<feGaussianBlur stdDeviation="2"/>
<feComposite in2="hardAlpha" operator="out"/>
<feColorMatrix type="matrix" values="0 0 0 0 0 0 0 0 0 0 0 0 0 0 0 0 0 0 0.25 0"/>
<feBlend mode="normal" in2="BackgroundImageFix" result="effect1_dropShadow_20_13051"/>
<feBlend mode="normal" in="SourceGraphic" in2="effect1_dropShadow_20_13051" result="shape"/>
</filter>
</defs>
</svg>
